<?xml version="1.0" ?><svg xmlns="http://www.w3.org/2000/svg" viewBox="0 0 64 64"><defs><style>.cls-1{fill:#fff;}.cls-2{fill:#0036a7;}.cls-3{fill:#d62718;}</style></defs><title/><g id="Russia"><path class="cls-1" d="M56,32a23.59,23.59,0,0,1-1.38,8A24,24,0,0,1,9.38,40a23.88,23.88,0,0,1,0-16,24,24,0,0,1,45.24,0A23.59,23.59,0,0,1,56,32Z"/><path class="cls-2" d="M56,32a23.59,23.59,0,0,1-1.38,8H9.38a23.88,23.88,0,0,1,0-16H54.62A23.59,23.59,0,0,1,56,32Z"/><path class="cls-3" d="M54.62,40A24,24,0,0,1,9.38,40Z"/></g></svg>